<?xml version="1.0" encoding="UTF-8" standalone="no"?>
<!-- Created with Inkscape (http://www.inkscape.org/) -->

<svg
   xmlns:dc="http://purl.org/dc/elements/1.1/"
   xmlns:cc="http://creativecommons.org/ns#"
   xmlns:rdf="http://www.w3.org/1999/02/22-rdf-syntax-ns#"
   xmlns:svg="http://www.w3.org/2000/svg"
   xmlns="http://www.w3.org/2000/svg"
   xmlns:sodipodi="http://sodipodi.sourceforge.net/DTD/sodipodi-0.dtd"
   xmlns:inkscape="http://www.inkscape.org/namespaces/inkscape"
   width="1024"
   height="192"
   viewBox="0 0 1024 192"
   id="svg2"
   version="1.1"
   inkscape:version="0.91 r13725"
   sodipodi:docname="mapmap-wide-with-border.svg">
  <defs
     id="defs4" />
  <sodipodi:namedview
     id="base"
     pagecolor="#ffffff"
     bordercolor="#666666"
     borderopacity="1.0"
     inkscape:pageopacity="0"
     inkscape:pageshadow="2"
     inkscape:zoom="1.1689453"
     inkscape:cx="512"
     inkscape:cy="96"
     inkscape:document-units="px"
     inkscape:current-layer="g4313"
     showgrid="false"
     inkscape:window-width="1680"
     inkscape:window-height="1022"
     inkscape:window-x="1050"
     inkscape:window-y="340"
     inkscape:window-maximized="1"
     units="px" />
  <metadata
     id="metadata7">
    <rdf:RDF>
      <cc:Work
         rdf:about="">
        <dc:format>image/svg+xml</dc:format>
        <dc:type
           rdf:resource="http://purl.org/dc/dcmitype/StillImage" />
        <dc:title></dc:title>
      </cc:Work>
    </rdf:RDF>
  </metadata>
  <g
     inkscape:groupmode="layer"
     id="layer2"
     inkscape:label="mapmap-font-strock"
     style="display:inline"
     transform="translate(0,-552.09448)" />
  <g
     style="display:inline"
     inkscape:label="mapmap-font"
     id="g4313"
     inkscape:groupmode="layer"
     transform="translate(0,-552.09448)">
    <g
       id="g4152"
       transform="translate(-16.70785,276.0476)">
      <path
         sodipodi:nodetypes="ccccccccccc"
         inkscape:connector-curvature="0"
         id="path16"
         style="display:inline;fill:#ffffff;fill-opacity:1;fill-rule:nonzero;stroke:#ffffff;stroke-width:30;stroke-linecap:square;stroke-miterlimit:4;stroke-dasharray:none;stroke-opacity:1"
         d="m 213.13908,291.79626 0,160.50123 -26.47862,0 0,-123.5862 -117.561741,123.5862 -26.47872,0 0,-160.50123 26.47872,0 58.379741,61.59448 59.182,-61.59448 26.47862,0" />
      <path
         inkscape:connector-curvature="0"
         id="path18"
         style="display:inline;fill:#ffffff;fill-opacity:1;fill-rule:nonzero;stroke:#ffffff;stroke-width:30;stroke-linecap:square;stroke-miterlimit:4;stroke-dasharray:none;stroke-opacity:1"
         d="m 305.61895,317.47739 -12.83701,33.30653 26.68281,72.62217 -27.68551,0 -12.43472,-37.70948 -25.68214,66.60088 -28.48504,0 64.99778,-160.50123 30.88867,0 65.00285,160.50123 -28.68415,0 -51.76354,-134.8201" />
      <path
         sodipodi:nodetypes="cccccccsssc"
         inkscape:connector-curvature="0"
         id="path20"
         style="display:inline;fill:#ffffff;fill-opacity:1;fill-rule:nonzero;stroke:#ffffff;stroke-width:30;stroke-linecap:square;stroke-miterlimit:4;stroke-dasharray:none;stroke-opacity:1"
         d="m 424.58761,377.66078 0,74.63468 -26.48269,0 0,-98.50547 27.68552,0 -27.68552,-38.11685 0,-23.87688 81.65359,0 c 23.66353,0 42.93022,19.26669 42.93022,42.9414 0,23.66354 -19.26669,42.92312 -42.93022,42.92312 l -55.1709,0" />
      <path
         sodipodi:nodetypes="ccccccccccc"
         d="m 705.24607,291.79626 0,160.50123 -26.47862,0 0,-123.5862 -117.56174,123.5862 -26.47872,0 0,-160.50123 26.47872,0 58.37974,61.59448 59.182,-61.59448 26.47862,0"
         style="display:inline;fill:#ffffff;fill-opacity:1;fill-rule:nonzero;stroke:#ffffff;stroke-width:30;stroke-linecap:square;stroke-miterlimit:4;stroke-dasharray:none;stroke-opacity:1"
         id="path4307"
         inkscape:connector-curvature="0" />
      <path
         d="m 797.72597,317.47739 -12.83701,33.30653 26.68281,72.62217 -27.68551,0 -12.43472,-37.70948 -25.68214,66.60088 -28.48504,0 64.99778,-160.50123 30.88867,0 65.00285,160.50123 -28.68415,0 -51.76354,-134.8201"
         style="display:inline;fill:#ffffff;fill-opacity:1;fill-rule:nonzero;stroke:#ffffff;stroke-width:30;stroke-linecap:square;stroke-miterlimit:4;stroke-dasharray:none;stroke-opacity:1"
         id="path4309"
         inkscape:connector-curvature="0" />
      <path
         sodipodi:nodetypes="cccccccsssc"
         d="m 916.6946,377.66078 0,74.63468 -26.48269,0 0,-98.50547 27.68552,0 -27.68552,-38.11685 0,-23.87688 81.65359,0 c 23.66353,0 42.9302,19.26669 42.9302,42.9414 0,23.66354 -19.26667,42.92312 -42.9302,42.92312 l -55.1709,0"
         style="display:inline;fill:#ffffff;fill-opacity:1;fill-rule:nonzero;stroke:#ffffff;stroke-width:30;stroke-linecap:square;stroke-miterlimit:4;stroke-dasharray:none;stroke-opacity:1"
         id="path4311"
         inkscape:connector-curvature="0" />
      <path
         d="m 69.098719,414.37467 40.525171,-42.32272 -40.525171,-43.53876 0,85.86148 z m 144.040361,-122.57841 0,160.50123 -26.47862,0 0,-123.5862 -117.561741,123.5862 -26.47872,0 0,-160.50123 26.47872,0 58.379741,61.59448 59.182,-61.59448 26.47862,0"
         style="display:inline;fill:#2d2f3e;fill-opacity:1;fill-rule:nonzero;stroke:none"
         id="path4315"
         inkscape:connector-curvature="0" />
      <path
         d="m 305.61895,317.47739 -12.83701,33.30653 26.68281,72.62217 -27.68551,0 -12.43472,-37.70948 -25.68214,66.60088 -28.48504,0 64.99778,-160.50123 30.88867,0 65.00285,160.50123 -28.68415,0 -51.76354,-134.8201"
         style="display:inline;fill:#2d2f3e;fill-opacity:1;fill-rule:nonzero;stroke:none"
         id="path4317"
         inkscape:connector-curvature="0" />
      <path
         d="m 426.39084,315.67314 29.09052,38.11685 24.27715,0 c 9.02837,0 16.44653,-8.62912 16.44653,-19.05233 0,-10.43947 -7.41816,-19.06452 -16.44653,-19.06452 l -53.36767,0 z m -1.80323,61.98764 0,74.63468 -26.48269,0 0,-98.50547 27.68552,0 -27.68552,-38.11685 0,-23.87688 81.65359,0 c 23.66353,0 42.93022,19.26669 42.93022,42.9414 0,23.66354 -19.26669,42.92312 -42.93022,42.92312 l -55.1709,0"
         style="display:inline;fill:#2d2f3e;fill-opacity:1;fill-rule:nonzero;stroke:none"
         id="path4319"
         inkscape:connector-curvature="0" />
      <path
         inkscape:connector-curvature="0"
         id="path4321"
         style="display:inline;fill:#2d2f3e;fill-opacity:1;fill-rule:nonzero;stroke:none"
         d="m 561.20571,414.37467 40.52517,-42.32272 -40.52517,-43.53876 0,85.86148 z m 144.04036,-122.57841 0,160.50123 -26.47862,0 0,-123.5862 -117.56174,123.5862 -26.47872,0 0,-160.50123 26.47872,0 58.37974,61.59448 59.182,-61.59448 26.47862,0" />
      <path
         inkscape:connector-curvature="0"
         id="path4323"
         style="display:inline;fill:#2d2f3e;fill-opacity:1;fill-rule:nonzero;stroke:none"
         d="m 797.72597,317.47739 -12.83701,33.30653 26.68281,72.62217 -27.68551,0 -12.43472,-37.70948 -25.68214,66.60088 -28.48504,0 64.99778,-160.50123 30.88867,0 65.00285,160.50123 -28.68415,0 -51.76354,-134.8201" />
      <path
         inkscape:connector-curvature="0"
         id="path4325"
         style="display:inline;fill:#2d2f3e;fill-opacity:1;fill-rule:nonzero;stroke:none"
         d="m 918.49783,315.67314 29.09052,38.11685 24.27715,0 c 9.02837,0 16.44653,-8.62912 16.44653,-19.05233 0,-10.43947 -7.41816,-19.06452 -16.44653,-19.06452 l -53.36767,0 z m -1.80323,61.98764 0,74.63468 -26.48269,0 0,-98.50547 27.68552,0 -27.68552,-38.11685 0,-23.87688 81.65359,0 c 23.66353,0 42.9302,19.26669 42.9302,42.9414 0,23.66354 -19.26667,42.92312 -42.9302,42.92312 l -55.1709,0" />
    </g>
  </g>
</svg>
