<?xml version="1.0" encoding="UTF-8" standalone="no"?>
<!-- Created with Inkscape (http://www.inkscape.org/) -->

<svg
   xmlns:dc="http://purl.org/dc/elements/1.1/"
   xmlns:cc="http://creativecommons.org/ns#"
   xmlns:rdf="http://www.w3.org/1999/02/22-rdf-syntax-ns#"
   xmlns:svg="http://www.w3.org/2000/svg"
   xmlns="http://www.w3.org/2000/svg"
   xmlns:sodipodi="http://sodipodi.sourceforge.net/DTD/sodipodi-0.dtd"
   xmlns:inkscape="http://www.inkscape.org/namespaces/inkscape"
   id="svg2"
   version="1.1"
   inkscape:version="0.48.4 r9939"
   width="512"
   height="512"
   xml:space="preserve"
   sodipodi:docname="icon.eps"><metadata
     id="metadata8"><rdf:RDF><cc:Work
         rdf:about=""><dc:format>image/svg+xml</dc:format><dc:type
           rdf:resource="http://purl.org/dc/dcmitype/StillImage" /><dc:title></dc:title></cc:Work></rdf:RDF></metadata><defs
     id="defs6" /><sodipodi:namedview
     pagecolor="#ffffff"
     bordercolor="#666666"
     borderopacity="1"
     objecttolerance="10"
     gridtolerance="10"
     guidetolerance="10"
     inkscape:pageopacity="0"
     inkscape:pageshadow="2"
     inkscape:window-width="1280"
     inkscape:window-height="776"
     id="namedview4"
     showgrid="false"
     inkscape:zoom="0.50706345"
     inkscape:cx="681.62178"
     inkscape:cy="239.36085"
     inkscape:window-x="0"
     inkscape:window-y="24"
     inkscape:window-maximized="1"
     inkscape:current-layer="g10" /><g
     id="g10"
     inkscape:groupmode="layer"
     inkscape:label="ink_ext_XXXXXX"
     transform="matrix(1.25,0,0,-1.25,0,512.00001)"><g
       id="g3012"
       transform="matrix(0.81272615,0,0,0.81272615,1.9721398,50.925783)"><path
         d="m 440.542,186.334 -40.133,0 0,73.133 40.134,0 c 31.116,0 56.431,25.312 56.431,56.425 0,31.122 -25.315,56.442 -56.431,56.442 l -94.548,0 0,-42.281 13.613,-18.742 -13.613,0 0,-57.916 -48.17,118.941 -49.509,0 -52.122,-128.706 0,128.706 -46.274,0 L 97.7734,318.062 46.332,372.336 0,372.336 0,0 46.3164,0 141.79,100.363 141.79,0 l 89.862,0 13.982,36.2641 2.766,-9.0762 55.449,0 L 314.288,0 l 86.124,0 0,73.4672 40.13,0 c 31.118,0 56.435,25.3117 56.435,56.4248 0,31.122 -25.317,56.442 -56.435,56.442"
         style="fill:#ffffff;fill-opacity:1;fill-rule:nonzero;stroke:none"
         id="path14"
         inkscape:connector-curvature="0" /><path
         d="m 40.2371,235.643 39.8906,41.66 -39.8906,42.857 0,-84.517 z m 141.7849,120.659 0,-157.988 -26.064,0 0,121.651 -115.7209,-121.651 -26.0641,0 0,157.988 26.0641,0 57.4656,-60.63 58.2553,60.63 26.064,0"
         style="fill:#2d2f3e;fill-opacity:1;fill-rule:nonzero;stroke:none"
         id="path16"
         inkscape:connector-curvature="0" /><path
         d="m 273.07,331.023 -12.636,-32.785 26.265,-71.485 -27.252,0 -12.24,37.119 -25.28,-65.558 -28.039,0 63.98,157.988 30.405,0 63.985,-157.988 -28.235,0 -50.953,132.709"
         style="fill:#2d2f3e;fill-opacity:1;fill-rule:nonzero;stroke:none"
         id="path18"
         inkscape:connector-curvature="0" /><path
         d="m 388.011,332.797 28.635,-37.52 23.897,0 c 8.887,0 16.189,8.494 16.189,18.754 0,10.276 -7.302,18.766 -16.189,18.766 l -52.532,0 z m -1.775,-61.017 0,-73.466 -26.068,0 0,96.963 27.252,0 -27.252,37.52 0,23.503 80.375,0 c 23.293,0 42.258,-18.965 42.258,-42.269 0,-23.293 -18.965,-42.251 -42.258,-42.251 l -54.307,0"
         style="fill:#2d2f3e;fill-opacity:1;fill-rule:nonzero;stroke:none"
         id="path20"
         inkscape:connector-curvature="0" /><path
         d="m 388.007,148.797 28.639,-37.521 23.894,0 c 8.882,0 16.192,8.496 16.192,18.755 0,10.276 -7.31,18.766 -16.192,18.766 l -52.533,0 z m -1.77,-61.0169 0,-73.466 -26.069,0 0,96.9619 27.252,0 -27.252,37.521 0,23.503 80.372,0 c 23.299,0 42.262,-18.965 42.262,-42.269 0,-23.293 -18.963,-42.2509 -42.262,-42.2509 l -54.303,0"
         style="fill:#2d2f3e;fill-opacity:1;fill-rule:nonzero;stroke:none"
         id="path22"
         inkscape:connector-curvature="0" /><path
         d="m 40.2371,51.5031 39.8891,41.6598 -39.8891,42.8581 0,-84.5179 z m 141.7889,120.6589 0,-157.9882 -26.063,0 0,121.6512 -115.7259,-121.6512 -26.0641,0 0,157.9882 26.0641,0 57.4649,-60.63 58.261,60.63 26.063,0"
         style="fill:#2d2f3e;fill-opacity:1;fill-rule:nonzero;stroke:none"
         id="path24"
         inkscape:connector-curvature="0" /><path
         d="m 273.068,146.883 -12.633,-32.784 25.719,-72.7381 -27.257,0 -11.693,38.3711 -25.277,-65.5582 -28.039,0 63.98,157.9882 30.41,0 63.98,-157.9882 -28.23,0 -50.96,132.7092"
         style="fill:#2d2f3e;fill-opacity:1;fill-rule:nonzero;stroke:none"
         id="path26"
         inkscape:connector-curvature="0" /></g></g></svg>